<svg width="512" height="512" viewBox="0 0 512 512" fill="none" xmlns="http://www.w3.org/2000/svg">
<rect width="512" height="512" fill="white"/>
<path d="M419.083 402.167C411.236 402.167 404.566 399.42 399.073 393.927C393.58 388.434 390.833 381.764 390.833 373.917C390.833 372.975 391.069 370.778 391.54 367.325L325.388 328.717C322.876 331.071 319.973 332.915 316.677 334.249C313.381 335.583 309.85 336.25 306.083 336.25C298.236 336.25 291.566 333.503 286.073 328.01C280.58 322.517 277.833 315.847 277.833 308C277.833 300.153 280.58 293.483 286.073 287.99C291.566 282.497 298.236 279.75 306.083 279.75C309.85 279.75 313.381 280.417 316.677 281.751C319.973 283.085 322.876 284.929 325.388 287.283L391.54 248.675C391.226 247.576 391.03 246.517 390.951 245.497C390.873 244.477 390.833 243.339 390.833 242.083C390.833 234.236 393.58 227.566 399.073 222.073C404.566 216.58 411.236 213.833 419.083 213.833C426.931 213.833 433.601 216.58 439.094 222.073C444.587 227.566 447.333 234.236 447.333 242.083C447.333 249.931 444.587 256.601 439.094 262.094C433.601 267.587 426.931 270.333 419.083 270.333C415.317 270.333 411.785 269.666 408.49 268.332C405.194 266.998 402.29 265.154 399.779 262.8L333.627 301.408C333.941 302.507 334.137 303.566 334.216 304.586C334.294 305.607 334.333 306.744 334.333 308C334.333 309.256 334.294 310.393 334.216 311.414C334.137 312.434 333.941 313.493 333.627 314.592L399.779 353.2C402.29 350.846 405.194 349.002 408.49 347.668C411.785 346.334 415.317 345.667 419.083 345.667C426.931 345.667 433.601 348.413 439.094 353.906C444.587 359.399 447.333 366.069 447.333 373.917C447.333 381.764 444.587 388.434 439.094 393.927C433.601 399.42 426.931 402.167 419.083 402.167Z" fill="#0073AA"/>
<path d="M58 68L58 359H250" stroke="#1E3A8A" stroke-width="20" stroke-linecap="round"/>
<line x1="58" y1="67.136" x2="264.369" y2="67.136" stroke="#1E3A8A" stroke-width="20" stroke-linecap="round"/>
<path d="M278.358 160.192C273.242 160.861 268.414 157.486 267.307 152.371L251.466 79.1667C250.602 75.1768 252.237 71.0635 255.599 68.7694C258.961 66.4754 263.377 66.4593 266.761 68.7288L356.036 128.598C359.421 130.868 361.097 134.969 360.273 138.965C359.449 142.961 356.29 146.053 352.288 146.78L278.854 160.115L278.358 160.192Z" fill="white" stroke="#1E3A8A" stroke-width="20" stroke-linejoin="round"/>
<path d="M371.937 136.336C371.937 130.813 367.46 126.337 361.937 126.338C356.415 126.339 351.938 130.817 351.938 136.34L371.937 136.336ZM361.938 233.812L371.937 233.81L371.937 136.336L361.938 136.338L351.938 136.34L351.938 233.814L361.938 233.812Z" fill="#1E3A8A"/>
<path d="M258.625 189.407L258.438 188.147L258.243 188.192C256.91 181.96 253.84 176.233 249.388 171.673C244.935 167.113 239.283 163.906 233.085 162.425C226.886 160.943 220.395 161.247 214.362 163.301C208.328 165.355 203 169.075 198.993 174.031C194.987 178.987 192.465 184.976 191.72 191.306C190.975 197.635 192.038 204.046 194.785 209.797C197.531 215.548 201.851 220.403 207.242 223.801C212.633 227.2 218.877 229.002 225.25 229C226.923 229 228.528 228.745 230.125 228.512C229.608 230.252 229.075 232.022 228.22 233.612C227.365 235.922 226.03 237.925 224.703 239.942C223.593 242.125 221.635 243.602 220.195 245.47C218.688 247.285 216.633 248.492 215.005 250C213.408 251.575 211.315 252.362 209.65 253.472C207.91 254.47 206.395 255.572 204.775 256.097L200.733 257.762L197.178 259.24L200.808 273.782L205.285 272.702C206.718 272.342 208.465 271.922 210.453 271.42C212.485 271.045 214.653 270.017 217.068 269.08C219.445 268.007 222.213 267.295 224.778 265.577C227.358 263.942 230.335 262.577 232.96 260.387C235.503 258.13 238.57 256.172 240.835 253.307C243.31 250.622 245.755 247.802 247.653 244.592C249.85 241.532 251.343 238.172 252.918 234.85C254.343 231.527 255.49 228.13 256.428 224.83C258.205 218.215 259 211.93 259.308 206.552C259.563 201.167 259.413 196.69 259.098 193.45C258.992 192.097 258.835 190.748 258.625 189.407ZM176.125 189.407L175.938 188.147L175.743 188.192C174.41 181.96 171.34 176.233 166.888 171.673C162.435 167.113 156.783 163.906 150.584 162.425C144.386 160.943 137.895 161.247 131.862 163.301C125.828 165.355 120.5 169.075 116.493 174.031C112.487 178.987 109.965 184.976 109.22 191.306C108.475 197.635 109.538 204.046 112.285 209.797C115.031 215.548 119.351 220.403 124.742 223.801C130.133 227.2 136.377 229.002 142.75 229C144.423 229 146.028 228.745 147.625 228.512C147.108 230.252 146.575 232.022 145.72 233.612C144.865 235.922 143.53 237.925 142.203 239.942C141.093 242.125 139.135 243.602 137.695 245.47C136.188 247.285 134.133 248.492 132.505 250C130.908 251.575 128.815 252.362 127.15 253.472C125.41 254.47 123.895 255.572 122.275 256.097L118.233 257.762C115.975 258.685 114.685 259.225 114.685 259.225L118.315 273.767L122.793 272.687C124.225 272.327 125.973 271.907 127.96 271.405C129.993 271.03 132.16 270.002 134.575 269.065C136.953 267.992 139.72 267.28 142.285 265.562C144.865 263.927 147.843 262.562 150.468 260.372C153.01 258.115 156.078 256.157 158.343 253.292C160.818 250.607 163.263 247.787 165.16 244.577C167.358 241.517 168.85 238.157 170.425 234.835C171.85 231.512 172.998 228.115 173.935 224.815C175.713 218.2 176.508 211.915 176.815 206.537C177.07 201.152 176.92 196.675 176.605 193.435C176.493 192.087 176.333 190.744 176.125 189.407Z" fill="#060644"/>
<path d="M58.2102 454.864H64.483L67.6364 458.92L70.7386 462.534L76.5852 469.864H69.6989L65.6761 464.92L63.6136 461.989L58.2102 454.864ZM77.1136 449.545C77.1136 453.352 76.392 456.591 74.9489 459.261C73.517 461.932 71.5625 463.972 69.0852 465.381C66.6193 466.778 63.8466 467.477 60.767 467.477C57.6648 467.477 54.8807 466.773 52.4148 465.364C49.9489 463.955 48 461.915 46.5682 459.244C45.1364 456.574 44.4205 453.341 44.4205 449.545C44.4205 445.739 45.1364 442.5 46.5682 439.83C48 437.159 49.9489 435.125 52.4148 433.727C54.8807 432.318 57.6648 431.614 60.767 431.614C63.8466 431.614 66.6193 432.318 69.0852 433.727C71.5625 435.125 73.517 437.159 74.9489 439.83C76.392 442.5 77.1136 445.739 77.1136 449.545ZM69.6307 449.545C69.6307 447.08 69.2614 445 68.5227 443.307C67.7955 441.614 66.767 440.33 65.4375 439.455C64.108 438.58 62.5511 438.142 60.767 438.142C58.983 438.142 57.4261 438.58 56.0966 439.455C54.767 440.33 53.733 441.614 52.9943 443.307C52.267 445 51.9034 447.08 51.9034 449.545C51.9034 452.011 52.267 454.091 52.9943 455.784C53.733 457.477 54.767 458.761 56.0966 459.636C57.4261 460.511 58.983 460.949 60.767 460.949C62.5511 460.949 64.108 460.511 65.4375 459.636C66.767 458.761 67.7955 457.477 68.5227 455.784C69.2614 454.091 69.6307 452.011 69.6307 449.545ZM99.2344 455.852V440.818H106.496V467H99.5241V462.244H99.2514C98.6605 463.778 97.6776 465.011 96.3026 465.943C94.9389 466.875 93.2741 467.341 91.3082 467.341C89.5582 467.341 88.0185 466.943 86.6889 466.148C85.3594 465.352 84.3196 464.222 83.5696 462.756C82.831 461.29 82.456 459.534 82.4446 457.489V440.818H89.706V456.193C89.7173 457.739 90.1321 458.96 90.9503 459.858C91.7685 460.756 92.8651 461.205 94.2401 461.205C95.1151 461.205 95.9332 461.006 96.6946 460.608C97.456 460.199 98.0696 459.597 98.5355 458.801C99.0128 458.006 99.2457 457.023 99.2344 455.852ZM124.134 467.511C121.486 467.511 119.196 466.949 117.264 465.824C115.344 464.687 113.861 463.108 112.815 461.085C111.77 459.051 111.247 456.693 111.247 454.011C111.247 451.307 111.77 448.943 112.815 446.92C113.861 444.886 115.344 443.307 117.264 442.182C119.196 441.045 121.486 440.477 124.134 440.477C126.781 440.477 129.065 441.045 130.986 442.182C132.918 443.307 134.406 444.886 135.452 446.92C136.497 448.943 137.02 451.307 137.02 454.011C137.02 456.693 136.497 459.051 135.452 461.085C134.406 463.108 132.918 464.687 130.986 465.824C129.065 466.949 126.781 467.511 124.134 467.511ZM124.168 461.886C125.372 461.886 126.378 461.545 127.185 460.864C127.991 460.17 128.599 459.227 129.009 458.034C129.429 456.841 129.639 455.483 129.639 453.96C129.639 452.438 129.429 451.08 129.009 449.886C128.599 448.693 127.991 447.75 127.185 447.057C126.378 446.364 125.372 446.017 124.168 446.017C122.952 446.017 121.929 446.364 121.099 447.057C120.281 447.75 119.662 448.693 119.241 449.886C118.832 451.08 118.628 452.438 118.628 453.96C118.628 455.483 118.832 456.841 119.241 458.034C119.662 459.227 120.281 460.17 121.099 460.864C121.929 461.545 122.952 461.886 124.168 461.886ZM155.668 440.818V446.273H139.901V440.818H155.668ZM143.48 434.545H150.741V458.955C150.741 459.625 150.844 460.148 151.048 460.523C151.253 460.886 151.537 461.142 151.901 461.29C152.276 461.437 152.707 461.511 153.196 461.511C153.537 461.511 153.878 461.483 154.219 461.426C154.56 461.358 154.821 461.307 155.003 461.273L156.145 466.676C155.781 466.79 155.27 466.92 154.611 467.068C153.952 467.227 153.151 467.324 152.207 467.358C150.457 467.426 148.923 467.193 147.605 466.659C146.298 466.125 145.281 465.295 144.554 464.17C143.827 463.045 143.469 461.625 143.48 459.909V434.545ZM172.048 467.511C169.355 467.511 167.037 466.966 165.094 465.875C163.162 464.773 161.673 463.216 160.628 461.205C159.582 459.182 159.06 456.79 159.06 454.028C159.06 451.335 159.582 448.972 160.628 446.938C161.673 444.903 163.145 443.318 165.043 442.182C166.952 441.045 169.19 440.477 171.759 440.477C173.486 440.477 175.094 440.756 176.582 441.312C178.082 441.858 179.389 442.682 180.503 443.784C181.628 444.886 182.503 446.273 183.128 447.943C183.753 449.602 184.065 451.545 184.065 453.773V455.767H161.957V451.267H177.23C177.23 450.222 177.003 449.295 176.548 448.489C176.094 447.682 175.463 447.051 174.656 446.597C173.861 446.131 172.935 445.898 171.878 445.898C170.776 445.898 169.798 446.153 168.946 446.665C168.105 447.165 167.446 447.841 166.969 448.693C166.491 449.534 166.247 450.472 166.236 451.506V455.784C166.236 457.08 166.474 458.199 166.952 459.142C167.44 460.085 168.128 460.812 169.014 461.324C169.901 461.835 170.952 462.091 172.168 462.091C172.974 462.091 173.713 461.977 174.384 461.75C175.054 461.523 175.628 461.182 176.105 460.727C176.582 460.273 176.946 459.716 177.196 459.057L183.912 459.5C183.571 461.114 182.872 462.523 181.815 463.727C180.77 464.92 179.418 465.852 177.759 466.523C176.111 467.182 174.207 467.511 172.048 467.511Z" fill="#060644"/>
<path d="M188.94 467V432.091H212.054V438.176H196.321V446.494H210.52V452.58H196.321V467H188.94ZM216.46 467V440.818H223.5V445.386H223.773C224.25 443.761 225.051 442.534 226.176 441.705C227.301 440.864 228.597 440.443 230.062 440.443C230.426 440.443 230.818 440.466 231.239 440.511C231.659 440.557 232.028 440.619 232.347 440.699V447.142C232.006 447.04 231.534 446.949 230.932 446.869C230.33 446.79 229.778 446.75 229.278 446.75C228.21 446.75 227.256 446.983 226.415 447.449C225.585 447.903 224.926 448.54 224.438 449.358C223.96 450.176 223.722 451.119 223.722 452.188V467H216.46ZM242.817 467.494C241.146 467.494 239.658 467.205 238.351 466.625C237.044 466.034 236.01 465.165 235.249 464.017C234.499 462.858 234.124 461.415 234.124 459.688C234.124 458.233 234.391 457.011 234.925 456.023C235.459 455.034 236.186 454.239 237.107 453.636C238.027 453.034 239.072 452.58 240.243 452.273C241.425 451.966 242.663 451.75 243.959 451.625C245.482 451.466 246.709 451.318 247.641 451.182C248.572 451.034 249.249 450.818 249.669 450.534C250.089 450.25 250.3 449.83 250.3 449.273V449.17C250.3 448.091 249.959 447.256 249.277 446.665C248.607 446.074 247.652 445.778 246.413 445.778C245.107 445.778 244.067 446.068 243.294 446.648C242.521 447.216 242.01 447.932 241.76 448.795L235.044 448.25C235.385 446.659 236.055 445.284 237.055 444.125C238.055 442.955 239.345 442.057 240.925 441.432C242.516 440.795 244.357 440.477 246.447 440.477C247.902 440.477 249.294 440.648 250.624 440.989C251.964 441.33 253.152 441.858 254.186 442.574C255.232 443.29 256.055 444.21 256.658 445.335C257.26 446.449 257.561 447.784 257.561 449.341V467H250.675V463.369H250.47C250.05 464.188 249.487 464.909 248.783 465.534C248.078 466.148 247.232 466.631 246.243 466.983C245.254 467.324 244.112 467.494 242.817 467.494ZM244.896 462.483C245.964 462.483 246.908 462.273 247.726 461.852C248.544 461.42 249.186 460.841 249.652 460.114C250.118 459.386 250.351 458.562 250.351 457.642V454.864C250.124 455.011 249.811 455.148 249.413 455.273C249.027 455.386 248.589 455.494 248.101 455.597C247.612 455.687 247.124 455.773 246.635 455.852C246.146 455.92 245.703 455.983 245.305 456.04C244.453 456.165 243.709 456.364 243.072 456.636C242.436 456.909 241.942 457.278 241.589 457.744C241.237 458.199 241.061 458.767 241.061 459.449C241.061 460.438 241.419 461.193 242.135 461.716C242.862 462.227 243.783 462.483 244.896 462.483ZM263.195 467V440.818H270.115V445.438H270.422C270.967 443.903 271.876 442.693 273.149 441.807C274.422 440.92 275.945 440.477 277.717 440.477C279.513 440.477 281.041 440.926 282.303 441.824C283.564 442.71 284.405 443.915 284.825 445.438H285.098C285.632 443.938 286.598 442.739 287.996 441.841C289.405 440.932 291.07 440.477 292.99 440.477C295.433 440.477 297.416 441.256 298.939 442.812C300.473 444.358 301.24 446.551 301.24 449.392V467H293.996V450.824C293.996 449.369 293.609 448.278 292.837 447.551C292.064 446.824 291.098 446.46 289.939 446.46C288.621 446.46 287.592 446.881 286.854 447.722C286.115 448.551 285.746 449.648 285.746 451.011V467H278.706V450.67C278.706 449.386 278.337 448.364 277.598 447.602C276.871 446.841 275.911 446.46 274.717 446.46C273.911 446.46 273.183 446.665 272.536 447.074C271.899 447.472 271.393 448.034 271.018 448.761C270.643 449.477 270.456 450.318 270.456 451.284V467H263.195ZM318.908 467.511C316.214 467.511 313.896 466.966 311.953 465.875C310.021 464.773 308.533 463.216 307.487 461.205C306.442 459.182 305.919 456.79 305.919 454.028C305.919 451.335 306.442 448.972 307.487 446.938C308.533 444.903 310.004 443.318 311.902 442.182C313.811 441.045 316.05 440.477 318.618 440.477C320.345 440.477 321.953 440.756 323.442 441.312C324.942 441.858 326.249 442.682 327.362 443.784C328.487 444.886 329.362 446.273 329.987 447.943C330.612 449.602 330.925 451.545 330.925 453.773V455.767H308.817V451.267H324.089C324.089 450.222 323.862 449.295 323.408 448.489C322.953 447.682 322.322 447.051 321.516 446.597C320.72 446.131 319.794 445.898 318.737 445.898C317.635 445.898 316.658 446.153 315.805 446.665C314.964 447.165 314.305 447.841 313.828 448.693C313.351 449.534 313.107 450.472 313.095 451.506V455.784C313.095 457.08 313.334 458.199 313.811 459.142C314.3 460.085 314.987 460.812 315.874 461.324C316.76 461.835 317.811 462.091 319.027 462.091C319.834 462.091 320.572 461.977 321.243 461.75C321.913 461.523 322.487 461.182 322.964 460.727C323.442 460.273 323.805 459.716 324.055 459.057L330.771 459.5C330.43 461.114 329.732 462.523 328.675 463.727C327.629 464.92 326.277 465.852 324.618 466.523C322.97 467.182 321.067 467.511 318.908 467.511Z" fill="#64748B"/>
<path d="M354.737 442.131C354.601 440.756 354.016 439.687 352.982 438.926C351.947 438.165 350.544 437.784 348.771 437.784C347.567 437.784 346.55 437.955 345.72 438.295C344.891 438.625 344.254 439.085 343.811 439.676C343.379 440.267 343.163 440.938 343.163 441.688C343.141 442.312 343.271 442.858 343.555 443.324C343.851 443.79 344.254 444.193 344.766 444.534C345.277 444.864 345.868 445.153 346.538 445.403C347.209 445.642 347.925 445.847 348.686 446.017L351.822 446.767C353.345 447.108 354.743 447.562 356.016 448.131C357.288 448.699 358.391 449.398 359.322 450.227C360.254 451.057 360.976 452.034 361.487 453.159C362.01 454.284 362.277 455.574 362.288 457.028C362.277 459.165 361.732 461.017 360.652 462.585C359.584 464.142 358.038 465.352 356.016 466.216C354.004 467.068 351.578 467.494 348.737 467.494C345.919 467.494 343.464 467.062 341.374 466.199C339.294 465.335 337.669 464.057 336.499 462.364C335.339 460.659 334.732 458.551 334.675 456.04H341.817C341.896 457.21 342.232 458.187 342.822 458.972C343.425 459.744 344.226 460.33 345.226 460.727C346.237 461.114 347.379 461.307 348.652 461.307C349.902 461.307 350.987 461.125 351.908 460.761C352.839 460.398 353.561 459.892 354.072 459.244C354.584 458.597 354.839 457.852 354.839 457.011C354.839 456.227 354.607 455.568 354.141 455.034C353.686 454.5 353.016 454.045 352.129 453.67C351.254 453.295 350.18 452.955 348.908 452.648L345.107 451.693C342.163 450.977 339.839 449.858 338.135 448.335C336.43 446.812 335.584 444.761 335.595 442.182C335.584 440.068 336.146 438.222 337.283 436.642C338.43 435.062 340.004 433.83 342.004 432.943C344.004 432.057 346.277 431.614 348.822 431.614C351.413 431.614 353.675 432.057 355.607 432.943C357.55 433.83 359.061 435.062 360.141 436.642C361.22 438.222 361.777 440.051 361.811 442.131H354.737ZM374.378 451.864V467H367.116V432.091H374.173V445.438H374.48C375.071 443.892 376.026 442.682 377.344 441.807C378.662 440.92 380.315 440.477 382.304 440.477C384.122 440.477 385.707 440.875 387.06 441.67C388.423 442.455 389.48 443.585 390.23 445.062C390.991 446.528 391.366 448.284 391.355 450.33V467H384.094V451.625C384.105 450.011 383.696 448.756 382.866 447.858C382.048 446.96 380.901 446.511 379.423 446.511C378.435 446.511 377.56 446.722 376.798 447.142C376.048 447.562 375.457 448.176 375.026 448.983C374.605 449.778 374.389 450.739 374.378 451.864ZM404.536 467.494C402.865 467.494 401.376 467.205 400.07 466.625C398.763 466.034 397.729 465.165 396.967 464.017C396.217 462.858 395.842 461.415 395.842 459.688C395.842 458.233 396.109 457.011 396.643 456.023C397.178 455.034 397.905 454.239 398.825 453.636C399.746 453.034 400.791 452.58 401.962 452.273C403.143 451.966 404.382 451.75 405.678 451.625C407.2 451.466 408.428 451.318 409.359 451.182C410.291 451.034 410.967 450.818 411.388 450.534C411.808 450.25 412.018 449.83 412.018 449.273V449.17C412.018 448.091 411.678 447.256 410.996 446.665C410.325 446.074 409.371 445.778 408.132 445.778C406.825 445.778 405.786 446.068 405.013 446.648C404.24 447.216 403.729 447.932 403.479 448.795L396.763 448.25C397.104 446.659 397.774 445.284 398.774 444.125C399.774 442.955 401.064 442.057 402.643 441.432C404.234 440.795 406.075 440.477 408.166 440.477C409.621 440.477 411.013 440.648 412.342 440.989C413.683 441.33 414.871 441.858 415.905 442.574C416.95 443.29 417.774 444.21 418.376 445.335C418.979 446.449 419.28 447.784 419.28 449.341V467H412.393V463.369H412.189C411.768 464.188 411.206 464.909 410.501 465.534C409.797 466.148 408.95 466.631 407.962 466.983C406.973 467.324 405.831 467.494 404.536 467.494ZM406.615 462.483C407.683 462.483 408.626 462.273 409.445 461.852C410.263 461.42 410.905 460.841 411.371 460.114C411.837 459.386 412.07 458.562 412.07 457.642V454.864C411.842 455.011 411.53 455.148 411.132 455.273C410.746 455.386 410.308 455.494 409.82 455.597C409.331 455.687 408.842 455.773 408.354 455.852C407.865 455.92 407.422 455.983 407.024 456.04C406.172 456.165 405.428 456.364 404.791 456.636C404.155 456.909 403.661 457.278 403.308 457.744C402.956 458.199 402.78 458.767 402.78 459.449C402.78 460.438 403.138 461.193 403.854 461.716C404.581 462.227 405.501 462.483 406.615 462.483ZM424.913 467V440.818H431.953V445.386H432.226C432.703 443.761 433.504 442.534 434.629 441.705C435.754 440.864 437.05 440.443 438.516 440.443C438.879 440.443 439.271 440.466 439.692 440.511C440.112 440.557 440.482 440.619 440.8 440.699V447.142C440.459 447.04 439.987 446.949 439.385 446.869C438.783 446.79 438.232 446.75 437.732 446.75C436.663 446.75 435.709 446.983 434.868 447.449C434.038 447.903 433.379 448.54 432.891 449.358C432.413 450.176 432.175 451.119 432.175 452.188V467H424.913ZM455.267 467.511C452.574 467.511 450.256 466.966 448.312 465.875C446.381 464.773 444.892 463.216 443.847 461.205C442.801 459.182 442.278 456.79 442.278 454.028C442.278 451.335 442.801 448.972 443.847 446.938C444.892 444.903 446.364 443.318 448.261 442.182C450.17 441.045 452.409 440.477 454.977 440.477C456.705 440.477 458.313 440.756 459.801 441.312C461.301 441.858 462.608 442.682 463.722 443.784C464.847 444.886 465.722 446.273 466.347 447.943C466.972 449.602 467.284 451.545 467.284 453.773V455.767H445.176V451.267H460.449C460.449 450.222 460.222 449.295 459.767 448.489C459.313 447.682 458.682 447.051 457.875 446.597C457.08 446.131 456.153 445.898 455.097 445.898C453.994 445.898 453.017 446.153 452.165 446.665C451.324 447.165 450.665 447.841 450.188 448.693C449.71 449.534 449.466 450.472 449.455 451.506V455.784C449.455 457.08 449.693 458.199 450.17 459.142C450.659 460.085 451.347 460.812 452.233 461.324C453.119 461.835 454.17 462.091 455.386 462.091C456.193 462.091 456.932 461.977 457.602 461.75C458.273 461.523 458.847 461.182 459.324 460.727C459.801 460.273 460.165 459.716 460.415 459.057L467.131 459.5C466.79 461.114 466.091 462.523 465.034 463.727C463.989 464.92 462.636 465.852 460.977 466.523C459.33 467.182 457.426 467.511 455.267 467.511Z" fill="#0073AA"/>
</svg>
